M48
;Layer_Color=9474304
;FILE_FORMAT=2:5
INCH,LZ
;TYPE=PLATED
T1F00S00C0.03800
T2F00S00C0.03937
T3F00S00C0.04331
T4F00S00C0.04400
T5F00S00C0.04724
T6F00S00C0.04800
T7F00S00C0.08000
T8F00S00C0.08268
T9F00S00C0.09000
T10F00S00C0.11100
T11F00S00C0.13000
%
T01
X00225Y01275
X00325
X0035Y01625
X0025
X0015
T02
X0295Y0065472
Y0124528
T03
X00175Y01875
X00375
T04
X0085Y0226
X0125
X0155
X0195
X0215
X0255
T05
X0366608Y0226
X0407789
T06
X0435Y005
X0465
Y011
Y013
X0435
Y011
X00375Y00925
X00175
X0435Y015
X0465
T07
X00175Y006
X004
T08
X0427992Y0185
X0446496
X0465
T09
X00875Y0195
X01375
X02075
X02575
X0335
X0385
T10
X046Y002
X003
Y023
X046
T11
X027625Y00268
X031625
X040375
X018875
X015625
X006875
Y01575
X015625
X018875
X027625
X031625
X040375
M30
