%FSLAX25Y25*%
%MOIN*%
G70*
G01*
G75*
G04 Layer_Physical_Order=2*
G04 Layer_Color=16711680*
%ADD10C,0.04000*%
%ADD11C,0.02500*%
%ADD12C,0.04500*%
%ADD13C,0.03000*%
%ADD14C,0.03500*%
%ADD15C,0.13000*%
%ADD16R,0.11811X0.11811*%
%ADD17C,0.11811*%
%ADD18C,0.15000*%
%ADD19C,0.12000*%
%ADD20C,0.06000*%
%ADD21C,0.07284*%
%ADD22R,0.07284X0.07284*%
%ADD23C,0.07500*%
%ADD24C,0.07087*%
%ADD25C,0.06800*%
%ADD26C,0.07000*%
%ADD27R,0.07874X0.07874*%
%ADD28C,0.07874*%
D10*
X435000Y50000D02*
X449000Y64000D01*
Y114000D01*
X465000Y130000D01*
Y50000D02*
X478000Y63000D01*
Y191000D01*
X471000Y198000D02*
X478000Y191000D01*
X460000Y198000D02*
X471000D01*
X424000Y234000D02*
X460000Y198000D01*
X374608Y234000D02*
X424000D01*
X366608Y226000D02*
X374608Y234000D01*
X245000Y236000D02*
X255000Y226000D01*
X76000Y236000D02*
X245000D01*
X37500Y197500D02*
X76000Y236000D01*
X37500Y187500D02*
Y197500D01*
D12*
X183000Y214000D02*
X395789D01*
X156500D02*
X183000D01*
X195000Y226000D01*
X350472Y65472D02*
X435000Y150000D01*
X295000Y65472D02*
X350472D01*
X455500Y139500D02*
X465000Y130000D01*
X455500Y139500D02*
Y191500D01*
X421000Y226000D02*
X455500Y191500D01*
X407789Y226000D02*
X421000D01*
X9000Y156500D02*
X15000Y162500D01*
X9000Y88000D02*
Y156500D01*
Y88000D02*
X37000Y60000D01*
X40000D01*
X395789Y214000D02*
X407789Y226000D01*
X137500Y195000D02*
X156500Y214000D01*
D13*
X48000Y156500D02*
Y175000D01*
X32500Y141000D02*
X48000Y156500D01*
X32500Y127500D02*
Y141000D01*
X43000Y159500D02*
Y184000D01*
X17500Y134000D02*
X43000Y159500D01*
X17500Y129813D02*
Y134000D01*
X43000Y184000D02*
X85000Y226000D01*
X17400Y129712D02*
X17500Y129813D01*
X17400Y92600D02*
Y129712D01*
Y92600D02*
X17500Y92500D01*
X37500Y108500D02*
X155000Y226000D01*
X37500Y92500D02*
Y108500D01*
X99000Y226000D02*
X125000D01*
X48000Y175000D02*
X99000Y226000D01*
D15*
X17500Y60000D02*
D03*
X40000D02*
D03*
X30000Y20000D02*
D03*
X460000D02*
D03*
Y230000D02*
D03*
X30000D02*
D03*
D16*
X465000Y185000D02*
D03*
D17*
X427992D02*
D03*
X446496D02*
D03*
D18*
X156250Y26800D02*
D03*
X68750D02*
D03*
X156250Y157500D02*
D03*
X68750D02*
D03*
X188750D02*
D03*
X276250D02*
D03*
X188750Y26800D02*
D03*
X276250D02*
D03*
X403750D02*
D03*
X316250D02*
D03*
X403750Y157500D02*
D03*
X316250D02*
D03*
D19*
X137500Y195000D02*
D03*
X87500D02*
D03*
X207500D02*
D03*
X257500D02*
D03*
X385000D02*
D03*
X335000D02*
D03*
D20*
X15000Y162500D02*
D03*
X25000D02*
D03*
X35000D02*
D03*
X22500Y127500D02*
D03*
X32500D02*
D03*
D21*
X37500Y187500D02*
D03*
D22*
X17500D02*
D03*
D23*
Y92500D02*
D03*
X37500D02*
D03*
D24*
X295000Y65472D02*
D03*
Y124528D02*
D03*
D25*
X125000Y226000D02*
D03*
X85000D02*
D03*
X195000D02*
D03*
X155000D02*
D03*
X215000D02*
D03*
X255000D02*
D03*
D26*
X465000Y50000D02*
D03*
X435000D02*
D03*
X465000Y110000D02*
D03*
X435000D02*
D03*
X465000Y130000D02*
D03*
X435000D02*
D03*
X465000Y150000D02*
D03*
X435000D02*
D03*
D27*
X407789Y226000D02*
D03*
D28*
X366608D02*
D03*
M02*
